HIERARCHY
ROOT Hips
{
     OFFSET 1.88212 96.90440 -13.34250
     CHANNELS 6 Xposition Yposition Zposition Zrotation Xrotation Yrotation
     JOINT Spine
     {
          OFFSET 0.00000 11.89050 0.00000
          CHANNELS 3 Zrotation Xrotation Yrotation
          JOINT Spine1
          {
               OFFSET -0.00000 25.65740 0.12766
               CHANNELS 3 Zrotation Xrotation Yrotation
               JOINT HEad
               {
                    OFFSET 0.00000 8.73416 0.01134
                    CHANNELS 3 Zrotation Xrotation Yrotation
                    End Site
                    {
                         OFFSET -0.29000 12.77420 2.51395
                    }
               }
               JOINT LeftShoulder1
               {
                    OFFSET 8.99000 -0.36225 -0.22000
                    CHANNELS 3 Zrotation Xrotation Yrotation
                    JOINT LeftArm
                    {
                         OFFSET 10.28270 -0.00338 0.32212
                         CHANNELS 3 Zrotation Xrotation Yrotation
                         JOINT LeftForeArm
                         {
                              OFFSET 32.76690 0.09914 -1.42434
                              CHANNELS 3 Zrotation Xrotation Yrotation
                              JOINT LeftHand
                              {
                                   OFFSET 27.56430 0.08536 1.02216
                                   CHANNELS 3 Zrotation Xrotation Yrotation
                                   End Site
                                   {
                                        OFFSET 16.74430 -0.60000 1.50291
                                   }
                              }
                         }
                    }
               }
               JOINT RightShoulder
               {
                    OFFSET -8.99000 -0.36225 -0.22000
                    CHANNELS 3 Zrotation Xrotation Yrotation
                    JOINT RightArm
                    {
                         OFFSET -10.28270 -0.00338 0.32212
                         CHANNELS 3 Zrotation Xrotation Yrotation
                         JOINT RightForeArm
                         {
                              OFFSET -32.89710 0.09914 -1.42434
                              CHANNELS 3 Zrotation Xrotation Yrotation
                              JOINT RightHand
                              {
                                   OFFSET -27.49210 0.08536 1.02216
                                   CHANNELS 3 Zrotation Xrotation Yrotation
                                   End Site
                                   {
                                        OFFSET -16.63120 -0.60000 1.50291
                                   }
                              }
                         }
                    }
               }
          }
     }
     JOINT LeftUpLeg
     {
          OFFSET 8.94580 -8.66707 0.10165
          CHANNELS 3 Zrotation Xrotation Yrotation
          JOINT LeftLeg
          {
               OFFSET 0.00000 -44.42270 1.37270
               CHANNELS 3 Zrotation Xrotation Yrotation
               JOINT LeftFoot
               {
                    OFFSET -0.25355 -42.09240 -1.46059
                    CHANNELS 3 Zrotation Xrotation Yrotation
                    JOINT LeftToes
                    {
                         OFFSET -0.04000 -4.41509 8.49910
                         CHANNELS 3 Zrotation Xrotation Yrotation
                         End Site
                         {
                              OFFSET 0.08000 -0.04745 9.77979
                         }
                    }
               }
          }
     }
     JOINT RightUpLeg
     {
          OFFSET -8.94580 -8.66707 0.10165
          CHANNELS 3 Zrotation Xrotation Yrotation
          JOINT RightLeg
          {
               OFFSET 0.00000 -44.42270 1.37270
               CHANNELS 3 Zrotation Xrotation Yrotation
               JOINT RightFoot
               {
                    OFFSET 0.25355 -42.09240 -1.46059
                    CHANNELS 3 Zrotation Xrotation Yrotation
                    JOINT RightToes
                    {
                         OFFSET 0.04000 -4.41509 8.49910
                         CHANNELS 3 Zrotation Xrotation Yrotation
                         End Site
                         {
                              OFFSET -0.08000 -0.13745 9.77979
                         }
                    }
               }
          }
     }
}
MOTION
Frames: 17
Frame Time: 0.01667
43.70233 83.27456 -121.63295 0.51250 -7.76550 -28.84309 -6.82443 28.70106 2.46903 -0.04134 0.09673 0.02062 -12.70751 4.49524 17.28012 -23.30276 34.75404 10.81107 -111.18817 -61.37511 -88.92680 -53.61531 52.91367 -78.98748 5.76907 10.34722 -3.23459 -17.06524 35.68227 15.30798 81.83621 -26.04950 80.60021 36.29770 48.93243 90.49350 -5.30512 4.91954 -4.00951 9.98534 -20.98840 13.68244 28.76900 27.34428 -15.94390 -19.96066 -0.11412 0.03184 -4.38455 -18.02289 7.43010 -16.02706 -25.52852 -18.46978 -30.48833 44.64036 46.68481 25.65989 0.03961 0.13255 -20.39395 -27.93610 -2.77077 
44.03758 79.96065 -122.10104 0.49264 -6.28491 -25.39960 -7.57091 32.57019 0.70489 -0.03846 0.08651 0.01430 -12.87689 2.65641 17.37076 -21.37779 31.49294 8.77142 -107.57765 -60.79289 -83.02219 -51.21239 53.27022 -80.60593 2.19124 18.57464 -7.34992 -13.56534 32.59132 14.36642 72.71227 -22.78896 70.47731 27.54711 44.90094 99.85713 -5.12603 6.15356 -0.51355 10.36014 -27.76689 10.47309 32.46362 35.11427 -16.01857 -17.01721 -0.14341 0.05558 -12.20675 -13.44630 -1.61235 -17.94351 -30.68324 -21.69345 -40.38791 51.55577 54.54633 30.32906 0.08190 0.19565 -24.93156 -34.15995 -2.42791 
44.45856 75.76251 -122.74194 0.99509 -4.65363 -20.34733 -8.14099 36.78123 -1.92061 -0.03564 0.07450 0.01384 -13.45109 0.67316 17.41125 -19.00739 27.98819 6.69870 -104.75095 -59.85499 -79.45148 -48.42380 53.59797 -82.70911 4.41628 14.75749 -8.17935 -8.93320 29.26657 13.00374 67.18829 -20.00405 65.02108 22.62051 41.56884 104.67741 -4.93074 9.16875 2.74919 8.83817 -36.99866 5.57678 37.81911 43.10778 -19.21649 -14.48227 -0.09274 0.04804 -17.66661 -18.13799 -4.59744 -22.28863 -36.46066 -26.34462 -53.02900 58.82493 65.30206 34.78935 0.09656 0.15954 -30.01297 -39.75860 -2.66338 
44.89478 71.32948 -123.54007 1.38960 -3.41840 -15.90761 -9.52652 41.65129 -2.81192 -0.03469 0.06402 0.00834 -14.50527 -1.41613 17.35016 -16.01798 24.25042 4.43722 -102.51176 -58.95129 -77.21856 -45.64540 53.96329 -85.19662 2.97939 18.57318 -9.87715 -3.87741 25.56403 11.43147 64.01294 -17.95888 62.29533 19.75635 39.35534 107.36256 -4.54484 9.17170 4.33106 6.24191 -47.02460 0.82769 46.00221 51.14863 -26.69210 -12.14892 -0.06787 0.04226 -22.51359 -17.41726 -9.18481 -27.76829 -42.21597 -30.11141 -71.54082 65.30402 82.15257 39.38179 0.10451 0.14493 -35.11804 -44.78465 -2.93848 
45.30562 66.43944 -124.45428 1.75635 -2.51643 -11.96078 -11.90621 46.89396 -1.85164 -0.03679 0.05339 0.01046 -16.09790 -3.68453 17.01793 -12.68780 20.34268 2.38789 -100.36478 -57.78212 -75.56911 -43.03267 54.16706 -87.96408 4.85080 15.27672 -9.78039 1.04405 21.57519 10.10348 62.49789 -16.78396 61.24050 19.74695 42.20040 110.84232 -7.06570 12.76309 3.09674 2.32060 -57.34650 -4.18396 58.33253 58.23647 -39.72551 -9.73436 -0.05420 0.04447 -27.32281 -19.16733 -12.10071 -34.41105 -47.56048 -33.24702 -98.00596 68.91658 107.39362 44.37656 0.12148 0.13567 -40.95093 -49.27059 -4.69647 
45.60095 61.47516 -125.44234 2.12493 -1.88946 -8.46911 -15.68016 52.18882 1.22458 -0.03918 0.04435 0.00660 -16.90504 -5.85271 15.73081 -8.88919 16.30256 0.38336 -98.50649 -56.62289 -74.29921 -40.69578 54.28624 -91.00576 4.01536 17.15027 -9.85684 5.88657 17.34843 8.67351 61.87230 -16.12544 61.23291 19.84146 43.67910 113.02813 5.48059 3.34018 9.96190 -3.20819 -67.33762 -9.95154 74.84966 62.99662 -58.28541 -6.95675 -0.04411 0.04750 -31.21397 -19.66121 -14.79750 -41.87875 -52.15424 -35.73899 -126.03938 68.15179 134.86276 49.85079 0.13693 0.11638 -47.20102 -53.44020 -6.44851 
45.81313 56.33681 -126.28249 2.50662 -1.49903 -5.36907 -21.48571 57.04392 6.97445 -0.04571 0.02103 0.00518 -16.93513 -7.72369 13.72144 -15.11347 11.90033 6.52985 -86.67015 -49.41112 -73.68552 -39.02293 53.85296 -93.56606 5.33334 14.90237 -9.33117 1.46367 16.46729 16.71677 70.49747 -24.42463 63.39242 19.61238 48.88283 118.24696 -6.96561 14.84162 -0.54374 -11.70536 -76.42496 -18.05430 92.50702 64.94134 -79.04129 -3.59675 -0.03574 0.04533 -35.04738 -20.41878 -16.38218 -49.08410 -55.84938 -36.89376 -143.99283 63.26525 152.08794 57.46122 0.25036 0.08247 -84.94943 -58.90870 -39.05973 
45.88849 51.43112 -126.92336 2.93516 -1.32304 -2.65574 -29.98881 60.89848 15.97474 -0.04813 0.00698 0.00515 -16.21099 -9.20158 11.19117 -9.36886 8.37412 3.40196 -86.63811 -48.44610 -73.36617 -33.86559 49.86094 -102.16178 0.51057 13.10584 -4.92503 7.97428 12.24218 13.13924 67.96165 -21.90988 66.63211 21.69847 49.17648 117.87540 -3.74500 10.00354 0.98179 -28.30044 -84.20461 -33.83038 108.66946 66.46590 -99.32486 1.98639 -0.03281 0.07340 -38.25229 -21.16593 -17.51824 -54.98675 -58.52665 -35.90411 -156.03098 58.68493 164.16135 64.68723 0.20901 0.01172 -76.22778 -61.53433 -25.86581 
45.95872 47.05194 -127.20824 3.43179 -1.36910 -0.30390 -40.98058 62.86538 28.03382 -0.05398 -0.03168 0.00726 -14.66077 -11.28606 8.11586 -3.73609 5.11063 0.64587 -86.36501 -47.17757 -72.96326 -31.17976 47.55093 -107.16472 -0.55077 10.34690 -2.56172 14.19827 8.30762 9.58685 65.37283 -19.29794 71.65823 24.99857 47.07846 114.90714 -9.13255 16.21983 -3.58883 4.41723 -90.00000 0.00000 123.49912 67.63537 -119.09566 9.01033 0.00758 0.07567 -41.45629 -21.94404 -17.65596 -58.66518 -60.05392 -32.08313 -164.23508 54.86807 173.09209 71.98754 0.18965 -0.01987 -89.15707 -63.41484 -34.90464 
45.96162 43.42575 -127.19545 3.99108 -1.60788 1.71787 -50.25893 63.28396 38.50933 0.04657 -0.05135 -0.04265 -13.62351 -13.83307 5.11771 0.57275 2.54058 -1.31822 -86.28662 -45.82740 -72.90809 -29.74322 46.31358 -110.16827 -1.75849 9.92120 -0.72431 18.67625 5.18431 6.78418 63.90382 -17.99097 74.27358 26.29039 46.12234 114.89419 6.90324 8.59698 8.67575 165.29933 -83.94356 162.15845 133.43750 67.98285 -133.97652 15.27263 0.01360 0.00983 -44.14761 -22.27325 -17.31243 -59.65239 -60.29795 -25.40778 -170.22391 52.39659 180.24448 79.19471 0.16865 -0.04925 -90.54411 -65.18999 -32.05105 
46.16141 40.76402 -126.83667 4.58175 -2.01379 3.44163 -56.80555 62.70672 46.31565 0.05127 -0.05368 -0.04960 -12.72065 -16.66610 2.16117 3.77815 0.44497 -2.60055 -90.25339 -43.89452 -78.64912 -31.86710 46.73779 -106.63553 -1.21496 9.26640 -0.15234 16.31033 -3.28526 12.27138 68.02029 -22.62297 70.64340 29.80288 45.46152 111.80752 -0.25091 11.85001 -3.40803 151.41809 -80.76805 149.58911 140.64984 68.78167 -145.52827 21.22183 0.00293 -0.01720 -46.50426 -21.96828 -16.56377 -58.55006 -59.01645 -16.94811 -174.86694 51.43534 186.19133 86.12035 0.14520 -0.07077 -97.67937 -66.59754 -34.98570 
46.46939 38.99192 -126.32813 5.17959 -2.55671 4.90464 -60.69433 61.61539 51.45861 0.04246 -0.04310 -0.04360 -11.88983 -19.80784 -0.75608 5.85948 -0.84679 -3.55026 -95.75494 -40.99578 -87.19569 -35.94171 47.78531 -99.43720 -1.32102 9.14235 1.02219 19.53601 -4.09059 9.13071 67.88677 -21.98156 73.83427 31.12799 45.92709 112.01847 2.67949 10.11162 3.17240 140.97311 -78.96763 140.38773 147.33191 70.03232 -155.64931 26.89750 -0.00158 -0.02033 -48.54427 -21.76483 -15.88807 -56.50513 -56.39489 -8.24772 -178.92236 51.63473 191.26717 92.51035 0.11998 -0.08126 -101.25041 -68.13075 -34.34430 
47.24779 38.31317 -125.65528 5.72996 -3.20739 6.11102 -60.15580 59.74862 52.04536 0.05404 -0.13006 -0.06818 -10.99158 -21.99369 -2.90806 7.02986 -0.36551 -4.47927 -100.69717 -36.97865 -96.08309 -36.19221 48.31016 -97.81207 7.72010 14.76949 -11.56488 22.07472 -3.31915 6.52994 70.27814 -22.56998 79.78167 30.30937 47.82806 114.60997 -4.25221 8.83642 -6.92473 130.95755 -78.45277 131.56593 154.64940 71.43522 -165.26260 32.37788 0.00245 -0.00842 -50.47848 -21.48727 -15.33537 -54.77033 -52.71495 -0.73812 -184.30186 53.73483 195.66885 90.18243 0.00618 0.03457 -93.77544 -68.38065 -29.95531 
48.35790 38.28263 -124.93556 6.20850 -3.93261 7.07111 -56.40179 57.51194 49.08237 0.06732 -0.10625 -0.07259 -10.01926 -23.71168 -4.33864 7.63257 1.54262 -5.38842 -103.26440 -34.53077 -100.56437 -36.37714 49.08479 -96.70708 1.10853 8.53828 -0.49457 23.99352 -1.15448 4.56838 74.77691 -23.81612 87.41135 35.13145 50.37407 110.15671 0.81213 18.40412 8.16887 119.13651 -78.88850 120.88535 164.52527 71.46672 -176.31664 38.10439 0.04616 0.06877 -52.57437 -23.12323 -15.50777 -53.79101 -48.48288 5.06888 -189.82426 57.04184 199.14377 87.58625 0.01435 0.06789 -83.81381 -67.73612 -22.87278 
50.20211 39.16244 -124.05428 6.57715 -4.72512 7.72807 -50.68811 55.00169 43.77329 0.07382 -0.07420 -0.07148 -8.93881 -25.12820 -5.07345 8.84652 -6.54521 -8.48322 -100.21159 -38.39209 -90.48769 -36.97815 49.74548 -96.22569 5.56036 10.22728 -3.79729 28.49215 -8.96495 6.43547 69.72035 -24.28475 79.02839 30.96523 50.82978 114.37038 -2.94258 10.43040 -6.05286 102.55991 -79.90579 105.47329 173.66197 70.70743 -185.34453 43.75053 0.08937 0.11055 -54.88825 -25.73622 -16.12818 -53.50822 -43.96469 9.28376 -196.65924 61.84848 203.23322 72.88648 0.13522 0.50603 -62.01353 -65.25813 -15.87772 
52.48803 40.43508 -123.10341 6.81159 -5.55065 8.07027 -43.99781 52.18831 37.00044 0.07499 -0.04098 -0.07019 -7.60609 -26.42530 -5.13815 8.22335 -1.84143 -8.06505 -102.09566 -37.70710 -92.99411 -37.56232 50.29735 -95.82379 1.82642 7.40833 1.78753 28.04151 -3.99841 4.89545 72.00420 -25.01369 82.51597 28.65263 51.33780 116.86793 -2.43537 8.65056 -0.29646 79.22745 -80.57948 83.33377 181.52985 70.99244 -192.25740 48.94971 0.08478 0.06940 -56.86845 -27.80347 -16.32350 -53.71080 -39.45657 12.14644 -205.51849 66.97587 209.75931 58.04855 0.07532 0.50070 -42.41390 -62.33087 -10.93832 
55.55025 42.45618 -121.97560 6.84994 -6.34348 8.03449 -37.04243 48.99654 29.44292 0.06833 -0.01272 -0.06710 -5.82614 -27.71207 -4.54776 6.76877 2.82502 -7.29178 -102.86080 -35.43181 -97.76076 -38.77155 51.07214 -95.77554 4.21291 8.16729 -13.90958 27.35623 0.96681 4.02492 76.63187 -27.65405 87.06467 26.74104 51.40798 117.87364 -11.37387 18.85623 -6.16530 51.78608 -79.86612 57.12064 189.66486 71.85811 -198.64238 53.89636 0.07766 0.06108 -59.21635 -29.71127 -16.76702 -54.11149 -34.95450 13.91991 -219.38614 72.29021 221.72406 43.15623 0.06262 0.48865 -24.31804 -57.47202 -8.00754 
